<svg width="24" height="24" fill="none" xmlns="http://www.w3.org/2000/svg"><path fill="#fff" fill-opacity=".01" d="M4 4h15.999v16H4z"/><path d="M7.546 13.668l-.557 2.08-2.035.043A7.964 7.964 0 014 11.998a7.96 7.96 0 01.895-3.679l1.813.332.793 1.802a4.755 4.755 0 00.045 3.214z" fill="#FBBB00"/><path d="M19.86 10.505a8.006 8.006 0 01-.035 3.165 7.998 7.998 0 01-2.816 4.568l-2.283-.117-.323-2.016a4.768 4.768 0 002.051-2.435h-4.278v-3.165h7.684z" fill="#518EF8"/><path d="M17.008 18.238A7.966 7.966 0 0112 20a7.999 7.999 0 01-7.046-4.209l2.592-2.122a4.757 4.757 0 006.856 2.436l2.606 2.133z" fill="#28B446"/><path d="M17.107 5.842l-2.592 2.121a4.758 4.758 0 00-7.013 2.491L4.896 8.321A7.998 7.998 0 0112 4c1.94 0 3.72.691 5.106 1.842z" fill="#F14336"/></svg>