<svg width="24" height="24" fill="none" xmlns="http://www.w3.org/2000/svg"><path fill-rule="evenodd" clip-rule="evenodd" d="M19.36 4.94a2.183 2.183 0 00-2.531-.397 7.377 7.377 0 00-.326-.359 2.166 2.166 0 00-3.059 0L9.592 8.037a.704.704 0 000 .996.713.713 0 00.996 0L14.44 5.18a.756.756 0 011.068 0l.257.259L14.2 7.004a.366.366 0 000 .517l2.58 2.579a.365.365 0 00.515 0l2.065-2.064a2.19 2.19 0 000-3.094zm-5.936 3.355a.365.365 0 00-.516 0l-5.793 5.794a1.094 1.094 0 000 1.55l1.55 1.548a1.096 1.096 0 001.549 0l5.793-5.793a.365.365 0 000-.516l-2.583-2.583zm-7.606 7.672a.352.352 0 01.15.09l2.423 2.423a.352.352 0 01-.129.58L4.47 20.43a.36.36 0 01-.369-.084.352.352 0 01-.082-.368l1.37-3.793a.352.352 0 01.429-.218z" fill="#6E41E2"/></svg>