<svg width="24" height="24" fill="none" xmlns="http://www.w3.org/2000/svg"><path fill-rule="evenodd" clip-rule="evenodd" d="M12.247 3.907l9.335 3.64h-.004c.127.05.235.135.31.246a.647.647 0 01-.335.981l-9.335 3.236a.667.667 0 01-.443 0L3.999 9.313v3.968a.976.976 0 01-.293.695 1.01 1.01 0 01-1.415 0 .974.974 0 01-.293-.695V8.485a.888.888 0 01.042-.197.224.224 0 00-.02-.048c-.01-.022-.022-.044-.022-.07a.646.646 0 01.112-.376.665.665 0 01.31-.246l9.335-3.64a.678.678 0 01.492 0zM12 13.478l5.11-1.775h-.002a.678.678 0 01.607.084.658.658 0 01.281.534v3.275a.647.647 0 01-.123.378.665.665 0 01-.322.239l-4.001 1.389a4.776 4.776 0 01-3.105 0l-4-1.389a.665.665 0 01-.323-.239.647.647 0 01-.123-.378v-3.274a.646.646 0 01.281-.535.674.674 0 01.607-.084L12 13.478z" fill="#6E41E2"/></svg>