<svg width="61" height="22" viewBox="0 0 61 22" fill="none" xmlns="http://www.w3.org/2000/svg">
<path d="M0.991943 0.199997H4.87994V13.832H13.3039V17H0.991943V0.199997ZM21.2626 17.192C19.9026 17.192 18.6786 16.912 17.5906 16.352C16.5186 15.776 15.6786 14.984 15.0706 13.976C14.4626 12.968 14.1586 11.824 14.1586 10.544C14.1586 9.264 14.4626 8.12 15.0706 7.112C15.6786 6.104 16.5186 5.32 17.5906 4.76C18.6786 4.184 19.9026 3.896 21.2626 3.896C22.6226 3.896 23.8386 4.184 24.9106 4.76C25.9826 5.32 26.8226 6.104 27.4306 7.112C28.0386 8.12 28.3426 9.264 28.3426 10.544C28.3426 11.824 28.0386 12.968 27.4306 13.976C26.8226 14.984 25.9826 15.776 24.9106 16.352C23.8386 16.912 22.6226 17.192 21.2626 17.192ZM21.2626 14.12C22.2226 14.12 23.0066 13.8 23.6146 13.16C24.2386 12.504 24.5506 11.632 24.5506 10.544C24.5506 9.456 24.2386 8.592 23.6146 7.952C23.0066 7.296 22.2226 6.968 21.2626 6.968C20.3026 6.968 19.5106 7.296 18.8866 7.952C18.2626 8.592 17.9506 9.456 17.9506 10.544C17.9506 11.632 18.2626 12.504 18.8866 13.16C19.5106 13.8 20.3026 14.12 21.2626 14.12ZM44.1651 4.088V14.84C44.1651 17.208 43.5491 18.968 42.3171 20.12C41.0851 21.272 39.2851 21.848 36.9171 21.848C35.6691 21.848 34.4851 21.696 33.3651 21.392C32.2451 21.088 31.3171 20.648 30.5811 20.072L32.0691 17.384C32.6131 17.832 33.3011 18.184 34.1331 18.44C34.9651 18.712 35.7971 18.848 36.6291 18.848C37.9251 18.848 38.8771 18.552 39.4851 17.96C40.1091 17.384 40.4211 16.504 40.4211 15.32V14.768C39.4451 15.84 38.0851 16.376 36.3411 16.376C35.1571 16.376 34.0691 16.12 33.0771 15.608C32.1011 15.08 31.3251 14.344 30.7491 13.4C30.1731 12.456 29.8851 11.368 29.8851 10.136C29.8851 8.904 30.1731 7.816 30.7491 6.872C31.3251 5.928 32.1011 5.2 33.0771 4.688C34.0691 4.16 35.1571 3.896 36.3411 3.896C38.2131 3.896 39.6371 4.512 40.6131 5.744V4.088H44.1651ZM37.0851 13.304C38.0771 13.304 38.8851 13.016 39.5091 12.44C40.1491 11.848 40.4691 11.08 40.4691 10.136C40.4691 9.192 40.1491 8.432 39.5091 7.856C38.8851 7.264 38.0771 6.968 37.0851 6.968C36.0931 6.968 35.2771 7.264 34.6371 7.856C33.9971 8.432 33.6771 9.192 33.6771 10.136C33.6771 11.08 33.9971 11.848 34.6371 12.44C35.2771 13.016 36.0931 13.304 37.0851 13.304ZM53.7938 17.192C52.4338 17.192 51.2098 16.912 50.1218 16.352C49.0498 15.776 48.2098 14.984 47.6018 13.976C46.9938 12.968 46.6898 11.824 46.6898 10.544C46.6898 9.264 46.9938 8.12 47.6018 7.112C48.2098 6.104 49.0498 5.32 50.1218 4.76C51.2098 4.184 52.4338 3.896 53.7938 3.896C55.1538 3.896 56.3698 4.184 57.4418 4.76C58.5138 5.32 59.3538 6.104 59.9618 7.112C60.5698 8.12 60.8738 9.264 60.8738 10.544C60.8738 11.824 60.5698 12.968 59.9618 13.976C59.3538 14.984 58.5138 15.776 57.4418 16.352C56.3698 16.912 55.1538 17.192 53.7938 17.192ZM53.7938 14.12C54.7538 14.12 55.5378 13.8 56.1458 13.16C56.7698 12.504 57.0818 11.632 57.0818 10.544C57.0818 9.456 56.7698 8.592 56.1458 7.952C55.5378 7.296 54.7538 6.968 53.7938 6.968C52.8338 6.968 52.0418 7.296 51.4178 7.952C50.7938 8.592 50.4818 9.456 50.4818 10.544C50.4818 11.632 50.7938 12.504 51.4178 13.16C52.0418 13.8 52.8338 14.12 53.7938 14.12Z" fill="#111111"/>
</svg>
